
        <svg xmlns="http://www.w3.org/2000/svg" xmlns:xlink="http://www.w3.org/1999/xlink" version="1.1" width="3206.896551724138" 
        height="2861.0582203377176" viewBox="0 0 3206.896551724138 2861.0582203377176">
			
			<g transform="scale(10.344827586206897) translate(10, 10)">
				<defs id="SvgjsDefs8609"></defs><g id="SvgjsG8610" featureKey="symbolGroupContainer" transform="matrix(1.05,0,0,1.05,43,0)" fill="#f8b400"><rect xmlns="http://www.w3.org/2000/svg" width="194" height="189" rx="10" ry="10"></rect></g><g id="SvgjsG8611" featureKey="7KWit6-0" transform="matrix(1.16348638833496,0,0,1.16348638833496,70.51920457837535,24.999999965325404)" fill="#206a5d"><g xmlns="http://www.w3.org/2000/svg"><rect x="66.2" y="28.2" width="10.5" height="10.5"></rect><rect x="50.5" y="44" width="10.5" height="10.5"></rect><rect x="66.2" y="44" width="10.5" height="10.5"></rect><rect x="50.5" y="28.2" width="10.5" height="10.5"></rect><path d="M128.9,60.8l-63-59.7C65.8,1,65.8,1,65.7,0.9c-0.1-0.1-0.2-0.2-0.3-0.3c-0.1-0.1-0.2-0.1-0.3-0.2c-0.1-0.1-0.2-0.1-0.4-0.2   c-0.1,0-0.2-0.1-0.4-0.1c-0.1,0-0.2-0.1-0.4-0.1c-0.1,0-0.3,0-0.4,0c-0.1,0-0.3,0-0.4,0c-0.1,0-0.3,0-0.4,0c-0.1,0-0.3,0-0.4,0   c-0.1,0-0.2,0.1-0.4,0.1c-0.1,0-0.3,0.1-0.4,0.1c-0.1,0-0.2,0.1-0.4,0.2c-0.1,0.1-0.2,0.1-0.3,0.2c-0.1,0.1-0.2,0.2-0.3,0.2   C60.6,1,60.5,1,60.4,1.1L-0.9,59.2c-1.6,1.5-1.7,4.1-0.2,5.7c0.8,0.8,1.8,1.3,2.9,1.3c1,0,2-0.4,2.8-1.1l7.5-7.1V124   c0,1.2,0.5,2.3,1.4,3.1c0.7,0.6,1.6,0.9,2.6,0.9c0.2,0,0.5,0,0.7-0.1c10.1-1.8,19.6-4.1,28.3-6.7c2.1-0.6,3.3-2.9,2.7-5   c-0.6-2.1-2.9-3.3-5-2.7c-7,2.1-14.6,4-22.7,5.6V50.9c0-0.2,0-0.3,0-0.5L63.2,9.5l44.8,42.4v67.2c-12.8-2.6-24.3-5.8-34.2-9.5   c26.5-14.5,25.4-29.7,22-37.9c-2-4.9-6.6-8.2-12.4-8.9c-6.7-0.8-13.8,2.1-19.3,7.6c-5.5-5.5-12.6-8.4-19.3-7.6   c-5.8,0.7-10.4,4-12.4,8.9c-2.6,6.5-2.2,13.2,1.2,19.4c8.7,15.9,37.1,29.4,77.8,36.8c0.2,0,0.5,0.1,0.7,0.1c0.9,0,1.8-0.3,2.6-0.9   c0.9-0.8,1.4-1.9,1.4-3.1V59.5l7.5,7.1c0.8,0.7,1.8,1.1,2.8,1.1c1.1,0,2.1-0.4,2.9-1.3C130.6,64.8,130.5,62.3,128.9,60.8z    M40.4,87.3c-2.3-4.2-2.5-8.3-0.8-12.5c0.9-2.2,3.1-3.6,6-3.9c4.1-0.5,10.3,1.4,15.1,8.1c0,0.1,0.1,0.1,0.2,0.2   c0.1,0.1,0.2,0.2,0.3,0.3c0.1,0.1,0.2,0.2,0.3,0.3c0.1,0,0.1,0.1,0.2,0.1c0,0,0.1,0,0.1,0.1c0.1,0.1,0.2,0.2,0.4,0.2   c0.1,0.1,0.2,0.1,0.3,0.2c0.1,0,0.2,0.1,0.4,0.1c0.1,0,0.3,0.1,0.4,0.1c0.1,0,0.2,0,0.4,0c0.1,0,0.3,0,0.4,0c0.1,0,0.2,0,0.4,0   c0.1,0,0.3,0,0.4,0c0.1,0,0.2-0.1,0.4-0.1c0.1,0,0.3-0.1,0.4-0.1c0.1,0,0.2-0.1,0.3-0.2c0.1-0.1,0.3-0.1,0.4-0.2c0,0,0.1,0,0.1-0.1   c0.1,0,0.1-0.1,0.2-0.1c0.1-0.1,0.2-0.2,0.3-0.3c0.1-0.1,0.2-0.2,0.3-0.3c0-0.1,0.1-0.1,0.2-0.2c4.9-6.7,11-8.6,15.1-8.1   c2.9,0.3,5.1,1.8,6,3.9c5.7,14-12.2,25.1-24.3,30.8C52.3,100,44,93.8,40.4,87.3z"></path></g></g><g id="SvgjsG8612" featureKey="ewgXDI-0" transform="matrix(1.9284480649656333,0,0,1.9284480649656333,-1.2727756585084193,207.74065688289846)" fill="#f8f1f1"><path d="M5.44 20.18 c-1.26 0 -2.46 -0.48 -3.38 -1.38 c-0.9 -0.92 -1.4 -2.12 -1.4 -3.38 s0.5 -2.46 1.4 -3.38 c0.9 -0.9 2.1 -1.38 3.38 -1.38 c0.84 0 1.6 0.3 2.26 0.9 l0.1 0.08 l0 -0.8 l2.42 0 l0 9.16 l-2.42 0 l0 -0.72 l-0.1 0.1 c-0.72 0.7 -1.54 0.8 -2.26 0.8 z M5.44 13 c-1.28 0 -2.36 1.12 -2.36 2.42 c0 1.32 1.08 2.42 2.36 2.42 s2.36 -1.1 2.36 -2.42 c0 -1.3 -1.08 -2.42 -2.36 -2.42 z M15.26 20 l-2.52 0 l0 -9.16 l2.52 0 l0 0.74 c0.72 -0.72 1.8 -0.96 2.52 -0.96 l0.6 0 l-0.6 2.5 l-0.38 0 c-1.18 0 -2.14 0.92 -2.14 2.02 l0 4.86 z M23.82 20.2 c-1.28 0 -2.48 -0.5 -3.38 -1.38 l-0.02 -0.02 c-0.88 -0.9 -1.38 -2.1 -1.38 -3.38 s0.5 -2.5 1.38 -3.4 c0.9 -0.88 2.1 -1.38 3.4 -1.38 c1.32 0 2.52 0.48 3.38 1.38 c0.2 0.2 0.36 0.38 0.5 0.56 l0.24 0.36 l-1.96 1.46 l-0.28 -0.38 c-0.48 -0.64 -1.18 -1.04 -1.88 -1.04 c-1.26 0 -2.34 1.12 -2.34 2.44 s1.08 2.44 2.34 2.44 c0.7 0 1.4 -0.4 1.88 -1.08 l0.26 -0.36 l2.04 1.46 l-0.3 0.38 c-0.04 0.06 -0.1 0.12 -0.16 0.18 c-0.1 0.12 -0.22 0.26 -0.34 0.38 c-0.88 0.88 -2.08 1.38 -3.38 1.38 z M38.46 20 l-2.52 0 l0 -4.9 c0 -1.08 -0.86 -1.92 -1.94 -1.92 c-1.04 0 -1.94 0.86 -1.94 1.92 l0 4.9 l-2.5 0 l0 -14.68 l2.5 0 l0 6.18 c0.62 -0.62 1.28 -0.84 1.94 -0.84 c1.2 0 2.32 0.46 3.16 1.28 c0.84 0.86 1.3 1.98 1.3 3.16 l0 4.9 z M43.540000000000006 20 l-2.6 0 l0 -9.16 l2.6 0 l0 9.16 z M42.24 9.74 c-0.86 0 -1.56 -0.7 -1.56 -1.54 c0 -0.42 0.16 -0.8 0.46 -1.08 c0.3 -0.3 0.68 -0.46 1.1 -0.46 c0.84 0 1.54 0.7 1.54 1.54 s-0.7 1.54 -1.54 1.54 z M52.78 20 l-2.4 0 c-0.88 0 -1.7 -0.34 -2.3 -0.94 c-0.62 -0.62 -0.94 -1.42 -0.94 -2.3 l0 -3.8 l-1.28 0 l0 -2.06 l1.28 0 l0 -3.6 l2.38 0 l0 3.6 l2.66 0 l0 2.06 l-2.66 0 l0 3.76 c0 0.5 0.44 0.96 0.88 0.96 l1.74 0 z M58.00000000000001 20.22 l-0.02 0 c-0.58 0 -1.18 -0.14 -1.74 -0.4 c-0.52 -0.22 -1 -0.58 -1.44 -1.04 c-0.7 -0.76 -1.12 -1.76 -1.22 -2.8 c-0.02 -0.18 -0.04 -0.36 -0.04 -0.56 c0 -0.4 0.06 -0.82 0.16 -1.24 c0.18 -0.8 0.56 -1.54 1.1 -2.1 c0.4 -0.44 0.86 -0.78 1.44 -1.06 c0.54 -0.26 1.14 -0.38 1.76 -0.38 c0.64 0 1.22 0.12 1.76 0.38 c0.6 0.28 1.08 0.64 1.44 1.06 c0.52 0.56 0.92 1.28 1.12 2.1 c0.1 0.38 0.14 0.78 0.14 1.24 l0 0.46 l-6.72 0 l0.02 0.14 c0.26 1.24 1.2 2.14 2.24 2.14 l0.02 0 c0.58 -0.04 1.22 -0.4 1.6 -0.72 l0.22 -0.18 l1.66 1.44 l-0.3 0.26 c-0.22 0.2 -0.5 0.44 -0.8 0.6 l-0.02 0 c-0.72 0.42 -1.5 0.64 -2.38 0.66 z M58.00000000000001 12.719999999999999 c-0.78 0 -1.56 0.54 -1.98 1.38 l-0.08 0.16 l4.14 0 l-0.08 -0.16 c-0.46 -0.86 -1.22 -1.38 -2 -1.38 z M73.68 20 l-3.12 0 l-3.18 -4.06 l-0.82 0.84 l0 3.22 l-2.6 0 l0 -14.68 l2.6 0 l0 7.94 l2.52 -2.42 l3.54 0 l-3.44 3.28 z M80.90000000000002 20 l-2.4 0 c-0.88 0 -1.7 -0.34 -2.3 -0.94 c-0.62 -0.62 -0.94 -1.42 -0.94 -2.3 l0 -3.8 l-1.28 0 l0 -2.06 l1.28 0 l0 -3.6 l2.38 0 l0 3.6 l2.66 0 l0 2.06 l-2.66 0 l0 3.76 c0 0.5 0.44 0.96 0.88 0.96 l1.74 0 z M89.72 20 l-2.52 0 l0 -9.16 l2.52 0 l0 0.74 c0.72 -0.72 1.8 -0.96 2.52 -0.96 l0.6 0 l-0.6 2.5 l-0.38 0 c-1.18 0 -2.14 0.92 -2.14 2.02 l0 4.86 z M98.2 20.22 c-1.24 0 -2.46 -0.5 -3.4 -1.4 c-0.9 -0.94 -1.4 -2.16 -1.4 -3.4 c0 -1.26 0.5 -2.48 1.4 -3.4 c0.92 -0.88 2.12 -1.38 3.4 -1.38 c1.32 0 2.52 0.5 3.38 1.38 c0.92 0.92 1.42 2.12 1.42 3.4 s-0.5 2.48 -1.42 3.4 c-0.9 0.9 -2.1 1.4 -3.38 1.4 z M98.2 12.92 c-1.34 0 -2.44 1.12 -2.44 2.5 s1.1 2.5 2.44 2.5 c1.36 0 2.46 -1.12 2.46 -2.5 s-1.1 -2.5 -2.46 -2.5 z M109.14000000000001 20.18 c-1.26 0 -2.46 -0.48 -3.38 -1.38 c-0.9 -0.92 -1.4 -2.12 -1.4 -3.38 s0.5 -2.46 1.4 -3.38 c0.9 -0.9 2.1 -1.38 3.38 -1.38 c0.84 0 1.6 0.3 2.26 0.9 l0.1 0.08 l0 -6.32 l2.42 0 l0 14.68 l-2.42 0 l0 -0.72 l-0.1 0.1 c-0.72 0.7 -1.54 0.8 -2.26 0.8 z M109.14000000000001 13 c-1.28 0 -2.36 1.12 -2.36 2.42 c0 1.32 1.08 2.42 2.36 2.42 s2.36 -1.1 2.36 -2.42 c0 -1.3 -1.08 -2.42 -2.36 -2.42 z M123.52000000000002 20 l-7.24 0 l0 -2.1 l4.28 -4.96 l-4.3 0 l0 -2.1 l7.24 0 l0 2.1 l-4.18 4.9 l4.2 0 l0 2.16 z M128.58000000000004 20 l-2.6 0 l0 -9.16 l2.6 0 l0 9.16 z M127.28000000000003 9.74 c-0.86 0 -1.56 -0.7 -1.56 -1.54 c0 -0.42 0.16 -0.8 0.46 -1.08 c0.3 -0.3 0.68 -0.46 1.1 -0.46 c0.84 0 1.54 0.7 1.54 1.54 s-0.7 1.54 -1.54 1.54 z M140.48000000000002 20 l-2.52 0 l0 -4.9 c0 -1.08 -0.86 -1.92 -1.94 -1.92 c-1.04 0 -1.94 0.86 -1.94 1.92 l0 4.9 l-2.5 0 l0 -9.16 l2.5 0 l0 0.66 c0.62 -0.62 1.28 -0.84 1.94 -0.84 c1.2 0 2.32 0.46 3.16 1.28 c0.84 0.86 1.3 1.98 1.3 3.16 l0 4.9 z M145.20000000000002 25.32 l-2.62 0 l2.18 -5.3 l-3.66 -9.18 l2.68 0 l2.28 5.7 l2.32 -5.7 l2.66 0 z"></path></g>
			</g>
		</svg>
	